<mxfile host="app.diagrams.net" modified="2023-08-02T14:02:36.948Z" agent="Mozilla/5.0 (Windows NT 10.0; Win64; x64) AppleWebKit/537.36 (KHTML, like Gecko) Chrome/115.0.0.0 Safari/537.36" version="21.3.2" etag="oGgTb1P5NlQmk7eoy525" type="github">
  <diagram name="第 1 页" id="9mpw0YKm13zGOD3NdsLJ">
    <mxGraphModel>
      <root>
        <mxCell id="0" />
        <mxCell id="1" parent="0" />
      </root>
    </mxGraphModel>
  </diagram>
</mxfile>
